<svg id="HTML" xmlns="http://www.w3.org/2000/svg" viewBox="0 0 70 70"><defs><style>.cls-1{fill:#3eb8ac;}</style></defs><path class="cls-1" d="M35,.06a35,35,0,1,0,35,35A35,35,0,0,0,35,.06ZM20.64,42.64h-3V37h-5v5.64H9.51V29.16h3.06v5.18h5V29.16h3ZM33.16,31.72H29.47V42.64H26.41V31.72H22.79V29.16H33.16ZM46.82,42.64l-.2-5.16c-.06-1.62-.12-3.58-.12-5.54h-.06c-.42,1.72-1,3.64-1.5,5.22l-1.65,5.26H40.92L39.47,37.2c-.44-1.58-.9-3.5-1.22-5.26h0c-.08,1.82-.14,3.9-.24,5.58l-.24,5.12H34.91l.86-13.48h4.06l1.32,4.5c.42,1.56.85,3.24,1.14,4.82h.06c.39-1.56.85-3.34,1.28-4.84l1.45-4.48h4l.74,13.48Zm5.83,0V29.16h3.06V40.08h5.37v2.56Z" transform="translate(0.03 -0.06)"/></svg>