<svg id="XLS" xmlns="http://www.w3.org/2000/svg" viewBox="0 0 70 70"><defs><style>.cls-1{fill:#3eb8ac;}</style></defs><path class="cls-1" d="M35,.06a35,35,0,1,0,35,35A35,35,0,0,0,35,.06ZM26,42.58l-1.22-2.44c-.5-.94-.82-1.64-1.2-2.42h0c-.28.78-.62,1.48-1,2.42l-1.12,2.44H17.93l3.9-6.82L18.07,29.1h3.5l1.18,2.46c.4.82.7,1.48,1,2.24h0c.32-.86.58-1.46.92-2.24l1.14-2.46h3.48l-3.8,6.58,4,6.9Zm14,0H31.59V29.1h3.06V40H40Zm5.5.2A8.82,8.82,0,0,1,41.69,42l.62-2.52a7.78,7.78,0,0,0,3.38.84c1.4,0,2.14-.58,2.14-1.46s-.64-1.32-2.26-1.9c-2.24-.78-3.7-2-3.7-4,0-2.3,1.92-4.06,5.1-4.06a8.26,8.26,0,0,1,3.44.68L49.73,32a6.41,6.41,0,0,0-2.82-.64c-1.32,0-2,.6-2,1.3,0,.86.76,1.24,2.5,1.9,2.38.88,3.5,2.12,3.5,4C51,40.86,49.21,42.78,45.51,42.78Z" transform="translate(0.03 -0.06)"/></svg>