<svg id="XBRL" xmlns="http://www.w3.org/2000/svg" viewBox="0 0 70 70"><defs><style>.cls-1{fill:#3eb8ac;}</style></defs><path class="cls-1" d="M31.59,32.55c0-1-.78-1.56-2.16-1.56a8.32,8.32,0,0,0-1.3.08v3.14h1C30.73,34.21,31.59,33.55,31.59,32.55Z"/><path class="cls-1" d="M42,31a7.61,7.61,0,0,0-1.38.1v3.72h1.2c1.52,0,2.42-.76,2.42-1.94S43.39,31.05,42,31Z"/><path class="cls-1" d="M29.17,36.39h-1v3.8a9.62,9.62,0,0,0,1.18,0c1.38,0,2.6-.52,2.6-1.94S30.69,36.39,29.17,36.39Z"/><path class="cls-1" d="M35,0A35,35,0,1,0,70,35,35,35,0,0,0,35,0ZM19.55,42.36l-1.22-2.45c-.5-.94-.82-1.64-1.2-2.42h0c-.28.78-.62,1.48-1,2.42l-1.12,2.45H11.45l3.9-6.83-3.76-6.66h3.5l1.18,2.46c.4.82.7,1.48,1,2.24h0c.32-.86.58-1.46.92-2.24l1.14-2.46h3.48l-3.8,6.58,4,6.91Zm14.16-1.08c-1,.77-2.62,1.22-5.3,1.22a23.21,23.21,0,0,1-3.3-.21V29.05a24.29,24.29,0,0,1,3.94-.28,7.45,7.45,0,0,1,4,.76,2.93,2.93,0,0,1,1.62,2.64,3,3,0,0,1-2.22,2.88v0a3.37,3.37,0,0,1,2.68,3.32A3.63,3.63,0,0,1,33.71,41.28Zm10.94,1.08a17.07,17.07,0,0,1-.94-3.15c-.36-1.68-.94-2.14-2.18-2.16h-.92v5.31h-3V29.05a26.78,26.78,0,0,1,4.06-.28c2,0,3.4.3,4.36,1.06a3.42,3.42,0,0,1,1.24,2.82A3.58,3.58,0,0,1,44.87,36V36a3.4,3.4,0,0,1,1.8,2.52c.42,1.52.84,3.28,1.1,3.81Zm13.62,0H49.85V28.87h3.06V39.79h5.36Z"/></svg>