<svg id="Audis" xmlns="http://www.w3.org/2000/svg" viewBox="0 0 55 47.13"><defs><style>.cls-1{fill:none;stroke:#00a955;stroke-miterlimit:10;stroke-width:2px;}</style></defs><path class="cls-1" d="M8,33.39H9.41a2.82,2.82,0,0,1,2.82,2.82h0A2.82,2.82,0,0,0,15.05,39h0a2.82,2.82,0,0,0,2.82-2.82V26.34a2.82,2.82,0,0,1,2.82-2.82h0a2.82,2.82,0,0,1,2.82,2.82V43.26a2.82,2.82,0,0,0,2.82,2.82h0a2.82,2.82,0,0,0,2.82-2.82V15.05A2.83,2.83,0,0,1,32,12.23h0a2.82,2.82,0,0,1,2.82,2.82V54.54a2.83,2.83,0,0,0,2.83,2.82h0a2.82,2.82,0,0,0,2.82-2.82V20.7a2.82,2.82,0,0,1,2.82-2.82h0a2.82,2.82,0,0,1,2.82,2.82V41.85a2.82,2.82,0,0,0,2.82,2.82h0a2.82,2.82,0,0,0,2.82-2.82V30.57a2.82,2.82,0,0,1,2.82-2.82h0a2.82,2.82,0,0,1,2.82,2.82V32a2.82,2.82,0,0,0,2.82,2.82H63" transform="translate(-8 -11.23)"/></svg>