<svg id="PDF" xmlns="http://www.w3.org/2000/svg" viewBox="0 0 70 70"><defs><style>.cls-1{fill:#3eb8ac;}</style></defs><path class="cls-1" d="M33.89,31.56a6.34,6.34,0,0,0-1.38.12v8.83a5.61,5.61,0,0,0,1.06.06c2.76,0,4.56-1.5,4.56-4.72C38.15,33,36.51,31.56,33.89,31.56Z" transform="translate(0.03 -0.06)"/><path class="cls-1" d="M21.71,31.52a5.19,5.19,0,0,0-1.26.12v4a4,4,0,0,0,1,.09c1.62,0,2.62-.83,2.62-2.21S23.23,31.52,21.71,31.52Z" transform="translate(0.03 -0.06)"/><path class="cls-1" d="M35,.06a35,35,0,1,0,35,35A35,35,0,0,0,35,.06Zm-9.1,36.56A6.2,6.2,0,0,1,21.49,38a7.86,7.86,0,0,1-1,0v4.82h-3V29.5a25,25,0,0,1,4.12-.28,6.47,6.47,0,0,1,4.12,1.08,3.94,3.94,0,0,1,1.44,3.12A4.28,4.28,0,0,1,25.87,36.62Zm13.26,4.59C37.71,42.39,35.55,43,32.91,43a26.4,26.4,0,0,1-3.46-.2V29.5a27.21,27.21,0,0,1,4.12-.28c2.56,0,4.22.46,5.52,1.44a6,6,0,0,1,2.28,5.09A6.84,6.84,0,0,1,39.13,41.21ZM52,31.82H46.83V34.9h4.84v2.48H46.83v5.43H43.77V29.32H52Z" transform="translate(0.03 -0.06)"/></svg>